# xmcd
#
# Track frame offsets: 
#        150
#        3458
#        18372
#        32840
#        51641
#        72274
#        90336
#        101732
#        122100
#        131580
#        148939
#        158712
#        170811
#        182903
#        193324
#        210808
#        235648
#        249468
#        268102
#        290191
#
# Disc length: 3989 seconds
#
# Revision: 0
# Processed by: cddbd v1.5.2PL0 Copyright (c) Steve Scherf et al.
# Submitted via: ExactAudioCopy v0.99pb5
#
DISCID=2d0f9314
DTITLE=Janis Joplin  - Blow My Blues Away CD 2
DYEAR=1900
DGENRE=
TTITLE0=Typewriter Talk
TTITLE1=Trouble In Mind
TTITLE2=Kansas City Blues
TTITLE3=Hesitation Blues
TTITLE4=Nobody Knows You When You're Down And Out
TTITLE5=Daddy, Daddy, Daddy
TTITLE6=Long Black Train Blues
TTITLE7=Black Mountain Blues
TTITLE8=Walk Right In
TTITLE9=River Jordan
TTITLE10=Mary Jane
TTITLE11=Call On Me
TTITLE12=Bye, Bye Baby
TTITLE13=It's A Deal
TTITLE14=Easy Once You Know How
TTITLE15=Roadblock
TTITLE16=Flower In The Sun
TTITLE17=Misery'n
TTITLE18=Catch Me Daddy
TTITLE19=Farewell Song
EXTD=
EXTT0=
EXTT1=
EXTT2=
EXTT3=
EXTT4=
EXTT5=
EXTT6=
EXTT7=
EXTT8=
EXTT9=
EXTT10=
EXTT11=
EXTT12=
EXTT13=
EXTT14=
EXTT15=
EXTT16=
EXTT17=
EXTT18=
EXTT19=
PLAYORDER=
